<svg width="169" height="47" viewBox="0 0 169 47" fill="none" xmlns="http://www.w3.org/2000/svg">
<path d="M57.0026 10.6483C56.9793 10.3155 56.921 9.4797 55.5689 9.4797C54.5902 9.4797 54.2636 10.0932 54.2636 10.5079C54.2636 11.3437 55.3939 11.8117 56.6176 12.173C59.2167 12.897 61.9791 13.6692 61.9791 17.0007C61.9791 20.2504 59.135 22.2482 55.731 22.2482C53.4002 22.2482 49.8912 21.1967 49.4712 17.1411H54.0406C54.2389 18.5553 55.591 18.5553 55.7776 18.5553C56.558 18.5553 57.3863 18.1108 57.3863 17.3634C57.3863 16.1714 56.256 16.031 53.3186 14.8975C51.3249 14.2541 49.6708 12.9516 49.6708 10.8706C49.6708 7.81458 52.4332 5.79199 55.6156 5.79199C57.6443 5.79199 61.1287 6.59271 61.5137 10.6483H57.0026Z" fill="white"/>
<path d="M63.4697 6.31714H67.7592V7.95366H67.8058C68.1675 7.31673 69.1695 5.79199 72.0486 5.79199C73.4006 5.79199 75.2543 6.25994 76.478 8.5386C77.41 7.03726 78.9954 5.79199 81.3507 5.79199C82.4228 5.79199 84.1481 6.03767 85.3835 7.34663C86.8289 8.87136 87.0505 9.89436 87.0505 13.313V21.7231H82.4578V13.5353C82.4578 12.2848 82.4578 10.1166 80.1037 10.1166C77.5513 10.1166 77.5513 12.4538 77.5513 13.313V21.7231H72.9586V13.3429C72.9586 12.5071 72.9586 10.1166 70.6628 10.1166C68.0638 10.1166 68.0638 12.6176 68.0638 13.5353V21.7231H63.471V6.31714H63.4697Z" fill="white"/>
<path d="M105.631 21.7213H101.038V20.0562H100.979C100.211 21.5575 98.2987 22.2478 96.4917 22.2478C91.619 22.2478 88.7749 18.4197 88.7749 14.0079C88.7749 8.95277 92.3993 5.7915 96.4917 5.7915C99.0208 5.7915 100.431 7.00687 100.979 7.95317H101.038V6.31665H105.631V21.7213ZM97.1917 17.9465C100.071 17.9465 101.038 15.5041 101.038 14.0079C101.038 12.1439 99.7674 10.0927 97.1567 10.0927C94.5343 10.0927 93.369 12.3129 93.369 14.0612C93.3677 15.5041 94.4177 17.9465 97.1917 17.9465Z" fill="white"/>
<path d="M123.464 6.31674H125.678V9.81207H123.464V21.7227H118.871V9.81207H116.599V6.31674H118.871V1.17969H123.464V6.31674Z" fill="white"/>
<path d="M77.374 23.9128H81.6751V25.5494H81.7218C82.2001 24.8019 83.1671 23.3877 85.9062 23.3877C87.3749 23.3877 89.0069 23.996 89.834 24.7201C90.661 25.4389 91.606 26.6607 91.606 29.6881V39.3188H87.0132V30.9087C87.0132 29.8272 87.0132 27.7123 84.6008 27.7123C81.9784 27.7123 81.9784 29.991 81.9784 30.9386V39.3188H77.374V23.9128Z" fill="white"/>
<path d="M101.629 23.4116C107.224 23.4116 109.905 27.8299 109.905 31.6046C109.905 35.3794 107.224 39.7925 101.629 39.7925C96.0342 39.7925 93.3535 35.3807 93.3535 31.6046C93.3535 27.8286 96.0342 23.4116 101.629 23.4116ZM101.629 35.4847C103.623 35.4847 105.312 33.8482 105.312 31.6046C105.312 29.3546 103.621 27.7129 101.629 27.7129C99.6366 27.7129 97.9463 29.3546 97.9463 31.6046C97.9463 33.8482 99.6353 35.4847 101.629 35.4847Z" fill="white"/>
<path d="M111.688 20.0682L116.292 17.9468V39.3191H111.688V20.0682Z" fill="white"/>
<path d="M126.352 23.4116C131.947 23.4116 134.628 27.8299 134.628 31.6046C134.628 35.3794 131.947 39.7925 126.352 39.7925C120.757 39.7925 118.077 35.3807 118.077 31.6046C118.077 27.8286 120.756 23.4116 126.352 23.4116ZM126.352 35.4847C128.346 35.4847 130.035 33.8482 130.035 31.6046C130.035 29.3546 128.345 27.7129 126.352 27.7129C124.36 27.7129 122.669 29.3546 122.669 31.6046C122.668 33.8482 124.358 35.4847 126.352 35.4847Z" fill="white"/>
<path d="M152.331 37.4608C152.331 39.7629 152.167 41.2356 151.422 42.5394C150.233 44.4853 147.436 46.1738 143.635 46.1738C138.297 46.1738 136.28 42.9541 135.977 40.7625H141.291C141.945 42.2872 143.669 42.2872 143.972 42.2872C144.555 42.2872 147.702 42.2352 147.702 38.0965V37.6233H147.655C147.177 38.5111 145.848 39.8201 143.447 39.8201C139.263 39.8201 135.695 36.6523 135.695 31.709C135.695 26.438 139.46 23.4106 143.447 23.4106C145.161 23.4106 146.851 24.0242 147.678 25.3565H147.737V23.9137H152.329V37.4608H152.331ZM143.973 35.515C146.187 35.515 147.738 33.9083 147.738 31.6869C147.738 29.2145 146.047 27.7132 143.997 27.7132C142.038 27.7132 140.291 29.2964 140.291 31.5465C140.291 34.0188 142.061 35.515 143.973 35.515Z" fill="white"/>
<path d="M156.094 45.2802H160.997L169 23.9131H164.127L161.19 32.8496H161.131L158.066 23.9131H153.159L158.871 38.5417L156.094 45.2802Z" fill="white"/>
<path d="M116.021 5.81543C113.654 5.93892 112.897 7.24138 112.518 7.9537H112.471V6.31718H108.147V19.9787L112.74 17.8729V13.2532C112.74 11.0526 114.087 10.5391 116.021 10.4429V5.81543Z" fill="white"/>
<path d="M44.8698 0H0V44.9934H44.8698V0Z" fill="#0095D2"/>
<path d="M38.0209 32.5986H22.1504V37.6629H38.0209V32.5986Z" fill="white"/>
<path d="M25.0799 16.7666L25.0838 16.7627L13.8605 5.50977L10.2905 9.08958L17.9451 16.7666L10.2905 24.4422L13.8605 28.0234L25.0838 16.7705L25.0799 16.7666Z" fill="white"/>
</svg>
