<svg width="146" height="106" viewBox="0 0 146 106" fill="none" xmlns="http://www.w3.org/2000/svg">
<path fill-rule="evenodd" clip-rule="evenodd" d="M38.9536 10.2947L24.811 0H20.2939L25.2956 3.6373L35.8327 11.3069L29.8784 29.6662H32.6707L38.9536 10.2947Z" fill="#FFCB29"/>
<path fill-rule="evenodd" clip-rule="evenodd" d="M36.4158 34.8424L41.8199 18.1866L40.4237 13.8745L38.5101 19.7666L34.4858 32.1762H15.2266L16.089 34.8424H36.4158Z" fill="#FFCB29"/>
<path fill-rule="evenodd" clip-rule="evenodd" d="M12.3439 40.0103H29.8209L33.4756 37.3523H14.2739L8.32781 19.0259L6.06927 20.6717L12.3439 40.0103Z" fill="#FFCB29"/>
<path fill-rule="evenodd" clip-rule="evenodd" d="M0 18.6885L5.40406 35.3444L9.05878 38.0106L3.12089 19.7089L18.6843 8.38558L16.4175 6.73975L0 18.6885Z" fill="#FFCB29"/>
<path fill-rule="evenodd" clip-rule="evenodd" d="M16.4257 0.345703L2.28315 10.6404L0.886963 14.9443L16.4257 3.63737L32.0055 14.9772L32.8678 12.3192L16.4257 0.345703Z" fill="#FFCB29"/>
<path d="M51.7903 68.0965C52.1188 70.6228 54.944 72.3016 58.4016 72.3016C62.0399 72.3016 64.4052 70.6722 64.4052 68.4503C64.4052 66.4095 62.853 65.4138 58.6809 64.5497L53.8763 63.6116C47.1089 62.3114 43.6267 58.6412 43.6267 53.0618C43.6267 45.9271 49.7288 41.3352 58.2292 41.3352C67.4111 41.3352 72.8316 45.7954 72.9302 52.6997H64.3313C64.1506 50.0252 61.6868 48.4205 58.3277 48.4205C55.0672 48.4205 52.9072 49.9018 52.9072 52.1401C52.9072 54.1233 54.5334 55.2261 58.377 56.0161L63.1322 56.9048C70.3842 58.3038 73.6365 61.5954 73.6365 67.4052C73.6365 74.721 67.6082 79.3869 58.147 79.3869C48.7844 79.3869 43.0107 75.2312 42.9122 68.0965H51.7903V68.0965Z" fill="white"/>
<path d="M98.6611 70.6721H86.6539L84.3132 78.7532H74.8027L87.1384 41.9688H98.5625L110.898 78.7449H100.977L98.6611 70.6721ZM88.4607 63.9406H96.8296L92.756 49.77H92.5507L88.4607 63.9406Z" fill="white"/>
<path d="M129.336 79.3869C118.019 79.3869 111.202 72.3756 111.202 60.2952C111.202 48.3629 118.019 41.3352 129.106 41.3352C138.009 41.3352 144.67 46.6101 145.614 54.1069H136.383C135.471 50.8481 132.72 48.8567 129.131 48.8567C123.842 48.8567 120.713 53.0124 120.713 60.1718C120.713 67.4628 124.17 71.8737 129.541 71.8737C133.763 71.8737 136.711 69.372 136.966 65.6771L136.99 65.1175H130.272V58.6905H145.992V63.2001C146 73.2397 139.791 79.3869 129.336 79.3869Z" fill="white"/>
<path d="M43.7006 101.474C43.7992 102.264 44.5794 102.774 45.6224 102.774C46.649 102.774 47.3635 102.264 47.3635 101.556C47.3635 100.939 46.9283 100.585 45.8524 100.33L44.7518 100.067C43.1832 99.7047 42.4358 98.9476 42.4358 97.7297C42.4358 96.2155 43.7499 95.1951 45.606 95.1951C47.4867 95.1951 48.7187 96.2155 48.7597 97.7132H47.306C47.2321 96.915 46.5669 96.4377 45.5978 96.4377C44.6369 96.4377 43.988 96.9067 43.988 97.6227C43.988 98.1905 44.4151 98.5196 45.4664 98.7665L46.4437 98.9887C48.1766 99.3837 48.9076 100.1 48.9076 101.375C48.9076 102.996 47.6099 104.017 45.5485 104.017C43.5856 104.017 42.3044 103.046 42.2387 101.474H43.7006Z" fill="white"/>
<path d="M49.9835 97.4088H51.3961V98.5444H51.4289C51.7082 97.7956 52.4145 97.3347 53.2686 97.3347C54.1802 97.3347 54.829 97.7955 55.0754 98.6185H55.1083C55.4204 97.8285 56.1924 97.3347 57.1204 97.3347C58.3852 97.3347 59.2311 98.1905 59.2311 99.4743V103.877H57.761V99.8364C57.761 99.0299 57.334 98.5773 56.5784 98.5773C55.8392 98.5773 55.33 99.1287 55.33 99.9105V103.877H53.901V99.7541C53.901 99.0299 53.4493 98.5773 52.7348 98.5773C51.9874 98.5773 51.47 99.1534 51.47 99.9516V103.877H49.9999V97.4088H49.9835Z" fill="white"/>
<path d="M60.1674 102.025C60.1674 100.873 61.0461 100.215 62.6723 100.116L64.3477 100.017V99.5401C64.3477 98.857 63.8878 98.4785 63.0993 98.4785C62.4341 98.4785 61.9578 98.8241 61.851 99.3508H60.4959C60.5287 98.1658 61.6292 97.3264 63.1486 97.3264C64.7583 97.3264 65.8014 98.1658 65.8014 99.4495V103.877H64.3888V102.832H64.3559C64.0028 103.523 63.2061 103.943 62.352 103.943C61.0708 103.943 60.1674 103.169 60.1674 102.025ZM64.3395 101.474V100.98L62.8612 101.071C62.0563 101.12 61.6292 101.433 61.6292 101.959C61.6292 102.478 62.081 102.807 62.7626 102.807C63.666 102.815 64.3395 102.256 64.3395 101.474Z" fill="white"/>
<path d="M67.0333 97.4086H68.4459V98.536H68.4788C68.6841 97.7789 69.2672 97.3428 70.0228 97.3428C70.2199 97.3428 70.3842 97.3675 70.4991 97.4004V98.7335C70.376 98.6841 70.146 98.6512 69.8914 98.6512C69.029 98.6512 68.5116 99.2108 68.5116 100.124V103.877H67.0415V97.4086H67.0333Z" fill="white"/>
<path d="M73.2751 95.9688V97.4089H74.4988V98.5527H73.2751V101.96C73.2751 102.494 73.5215 102.75 74.0553 102.75C74.1949 102.75 74.4002 102.733 74.4906 102.717V103.844C74.3345 103.877 74.0307 103.902 73.7186 103.902C72.347 103.902 71.805 103.408 71.805 102.157V98.5527H70.9262V97.4089H71.805V95.9688H73.2751V95.9688Z" fill="white"/>
<path d="M83.2045 101.672H80.0754L79.3526 103.877H77.7758L80.7981 95.3433H82.5146L85.5369 103.877H83.9354L83.2045 101.672ZM80.4285 100.495H82.8513L81.6687 96.8492H81.6276L80.4285 100.495Z" fill="white"/>
<path d="M86.736 98.5526H85.8572V97.4088H86.736V96.8327C86.736 95.6066 87.3026 95.0881 88.6906 95.0881C88.9534 95.0881 89.1834 95.1046 89.4051 95.1457V96.2155C89.2737 96.1826 89.1095 96.1662 88.9288 96.1662C88.4032 96.1662 88.1814 96.3883 88.1814 96.8903V97.4005H89.4051V98.5444H88.1978V103.869H86.7277V98.5526H86.736Z" fill="white"/>
<path d="M90.4318 97.4086H91.8444V98.536H91.8772C92.0825 97.7789 92.6657 97.3428 93.4212 97.3428C93.6184 97.3428 93.7826 97.3675 93.8976 97.4004V98.7335C93.7744 98.6841 93.5444 98.6512 93.2898 98.6512C92.4275 98.6512 91.9101 99.2108 91.9101 100.124V103.877H90.44V97.4086H90.4318Z" fill="white"/>
<path d="M94.6285 95.7794C94.6285 95.3185 94.9981 94.9729 95.458 94.9729C95.918 94.9729 96.2875 95.3185 96.2875 95.7794C96.2875 96.232 95.918 96.5858 95.458 96.5858C94.9981 96.5858 94.6285 96.232 94.6285 95.7794ZM94.7189 97.4087H96.189V103.877H94.7189V97.4087Z" fill="white"/>
<path d="M101.749 99.6963C101.642 99.0133 101.133 98.5196 100.312 98.5196C99.3427 98.5196 98.7103 99.3343 98.7103 100.634C98.7103 101.976 99.3509 102.766 100.32 102.766C101.108 102.766 101.626 102.354 101.757 101.622H103.145C103.022 103.037 101.922 103.967 100.304 103.967C98.4311 103.967 97.2156 102.7 97.2156 100.634C97.2156 98.6101 98.4229 97.3181 100.287 97.3181C101.979 97.3181 103.03 98.3632 103.129 99.6963H101.749V99.6963Z" fill="white"/>
<path d="M103.769 102.025C103.769 100.873 104.648 100.215 106.274 100.116L107.95 100.017V99.5401C107.95 98.857 107.49 98.4785 106.701 98.4785C106.036 98.4785 105.56 98.8241 105.453 99.3508H104.098C104.131 98.1658 105.231 97.3264 106.751 97.3264C108.36 97.3264 109.404 98.1658 109.404 99.4495V103.877H107.991V102.832H107.958C107.605 103.523 106.808 103.943 105.954 103.943C104.681 103.943 103.769 103.169 103.769 102.025ZM107.95 101.474V100.98L106.472 101.071C105.667 101.12 105.24 101.433 105.24 101.959C105.24 102.478 105.691 102.807 106.373 102.807C107.268 102.815 107.95 102.256 107.95 101.474Z" fill="white"/>
<path d="M117.206 104.017C114.717 104.017 113.173 102.322 113.173 99.573C113.173 96.8656 114.717 95.1951 117.173 95.1951C119.111 95.1951 120.573 96.3389 120.852 98.0506H119.308C119.021 97.0713 118.232 96.487 117.181 96.487C115.645 96.487 114.734 97.6309 114.734 99.5483C114.734 101.515 115.686 102.717 117.222 102.717C118.512 102.717 119.399 101.902 119.423 100.709L119.431 100.569H117.378V99.4002H120.918V100.314C120.918 102.626 119.538 104.017 117.206 104.017Z" fill="white"/>
<path d="M122.109 97.4086H123.521V98.536H123.554C123.76 97.7789 124.343 97.3428 125.098 97.3428C125.295 97.3428 125.46 97.3675 125.575 97.4004V98.7335C125.451 98.6841 125.221 98.6512 124.967 98.6512C124.105 98.6512 123.587 99.2108 123.587 100.124V103.877H122.117V97.4086H122.109Z" fill="white"/>
<path d="M125.624 100.643C125.624 98.6019 126.839 97.3264 128.728 97.3264C130.626 97.3264 131.841 98.5937 131.841 100.643C131.841 102.708 130.642 103.976 128.728 103.976C126.823 103.967 125.624 102.7 125.624 100.643ZM130.346 100.643C130.346 99.285 129.739 98.495 128.728 98.495C127.726 98.495 127.119 99.2932 127.119 100.643C127.119 102.001 127.726 102.791 128.728 102.791C129.739 102.791 130.346 102.001 130.346 100.643Z" fill="white"/>
<path d="M138.493 103.877H137.081V102.749H137.048C136.695 103.539 136.054 103.959 135.069 103.959C133.664 103.959 132.785 103.046 132.785 101.556V97.4087H134.256V101.26C134.256 102.198 134.707 102.708 135.578 102.708C136.473 102.708 137.023 102.075 137.023 101.12V97.4087H138.493V103.877Z" fill="white"/>
<path d="M145.934 100.643C145.934 102.667 144.891 103.943 143.273 103.943C142.345 103.943 141.623 103.523 141.245 102.799H141.212V106H139.742V97.4088H141.179V98.495H141.212C141.565 97.7873 142.345 97.3347 143.249 97.3347C144.891 97.3347 145.934 98.6185 145.934 100.643ZM144.431 100.643C144.431 99.3838 143.791 98.5609 142.822 98.5609C141.861 98.5609 141.212 99.4002 141.212 100.643C141.212 101.894 141.852 102.717 142.822 102.717C143.791 102.717 144.431 101.91 144.431 100.643Z" fill="white"/>
<path d="M145.951 87.9946H42.9451V88.3403H145.951V87.9946Z" fill="#FFCB29"/>
</svg>
